<?xml version="1.0" encoding="utf-8"?>
<!-- Generator: Adobe Illustrator 20.1.0, SVG Export Plug-In . SVG Version: 6.00 Build 0)  -->
<svg version="1.1" id="Layer_1" xmlns="http://www.w3.org/2000/svg" xmlns:xlink="http://www.w3.org/1999/xlink" x="0px" y="0px"
	   style="enable-background:new 0 0 198 191.3;" xml:space="preserve">
<style type="text/css">
	.st0{fill:none;stroke:#66A3FF;stroke-width:0.7087;stroke-miterlimit:22.9256;}
	.st1{fill-rule:evenodd;clip-rule:evenodd;fill:#66A3FF;stroke:#66A3FF;stroke-width:0.216;stroke-miterlimit:22.9256;}
	.st2{fill:#66A3FF;stroke:#66A3FF;stroke-width:0.216;stroke-miterlimit:22.9256;}
</style>
<g>
	<path class="st0" d="M23.4,116.4c9.4,0,17.1,7.6,17.1,17.1c0,9.4-7.6,17.1-17.1,17.1c-9.4,0-17.1-7.6-17.1-17.1
		C6.4,124,14,116.4,23.4,116.4L23.4,116.4z"/>
	<path class="st1" d="M26.7,132.2l-8.2-0.1l0,3l4.9,0c-0.9,4.7-8.2,5.2-9.9-0.1c-1.4-4.4,3-8.5,7.2-6.7c0.7,0.3,0.9,0.6,1.4,0.8
		l2.3-2.2c-1-1.2-3.1-2.2-5.3-2.3c-2.4-0.1-4.5,0.8-5.8,1.9c-2.7,2.2-4.4,6.7-2.2,10.9C14.9,145.3,28.3,142.8,26.7,132.2L26.7,132.2
		z"/>
	<polygon class="st1" points="32.1,129.8 34.6,129.8 34.6,132.2 36.9,132.2 36.9,134.7 34.6,134.7 34.6,137.1 32.1,137.1 
		32.1,134.7 29.7,134.7 29.7,132.2 32.1,132.2 32.1,129.8 	"/>
</g>
<g>
	<path class="st1" d="M24.2,103.2l0-6.9l2.5,0c0.1-0.4,0.3-2,0.5-2.2c0-0.4,0.1-0.5,0.1-0.9l-3.1,0c0-3.6-0.6-3.7,3.1-3.7l0-3.1
		c-2.3,0.1-4.2-0.2-5.6,1.1c-1.3,1.3-1.1,3.4-1.1,5.6h-3.1l0,3.1l3.1,0l0,8.6l3.7,0L24.2,103.2L24.2,103.2z"/>
	<path class="st0" d="M22.4,78.4c9.4,0,17.1,7.6,17.1,17.1c0,9.4-7.6,17.1-17.1,17.1c-9.4,0-17.1-7.6-17.1-17.1
		C5.4,86,13,78.4,22.4,78.4L22.4,78.4z"/>
</g>
<g>
	<path class="st2" d="M18.7,66.5c7.5,0,11.7-6.2,11.7-11.6c0-0.2,0-0.4,0-0.5c0.8-0.6,1.5-1.3,2-2.1c-0.7,0.3-1.5,0.5-2.4,0.6
		c0.8-0.5,1.5-1.3,1.8-2.3c-0.8,0.5-1.7,0.8-2.6,1c-0.7-0.8-1.8-1.3-3-1.3c-2.3,0-4.1,1.8-4.1,4.1c0,0.3,0,0.6,0.1,0.9
		c-3.4-0.2-6.4-1.8-8.4-4.3c-0.3,0.6-0.6,1.3-0.6,2.1c0,1.4,0.7,2.7,1.8,3.4c-0.7,0-1.3-0.2-1.9-0.5v0.1c0,2,1.4,3.6,3.3,4
		c-0.3,0.1-0.7,0.1-1.1,0.1c-0.3,0-0.5,0-0.8-0.1c0.5,1.6,2,2.8,3.8,2.8c-1.4,1.1-3.2,1.8-5.1,1.8c-0.3,0-0.7,0-1-0.1
		C14.2,65.8,16.4,66.5,18.7,66.5L18.7,66.5z"/>
	<path class="st0" d="M22.4,41.4c9.4,0,17.1,7.6,17.1,17.1c0,9.4-7.6,17.1-17.1,17.1c-9.4,0-17.1-7.6-17.1-17.1
		C5.4,49,13,41.4,22.4,41.4L22.4,41.4z"/>
</g>
<g>
	<path class="st1" d="M21.8,28.6L18,28.5c-1,0-1.9-0.3-2.5-0.7c-1.6-1.2-1.3-5.3-1.3-7.6c0-0.5,0-1,0-1.5c0.2-1.4-0.3-3.9,3.1-4.4
		c1.4-0.2,7.3-0.2,8.4,0c1.9,0.3,2.9,1.6,2.9,3.6l0.1,3.9c0,1.9,0.2,4.7-1,5.8c-0.5,0.5-1.5,0.9-2.5,0.9
		C23.9,28.6,23,28.6,21.8,28.6L21.8,28.6z M18.2,12.6h6.4c3.7,0,5.6,2,5.6,5.8v6c0,3.9-1.9,5.8-5.8,5.8h-6c-3.8,0-5.8-1.9-5.8-5.6
		v-6.4C12.6,14.6,14.6,12.6,18.2,12.6L18.2,12.6z"/>
	<path class="st1" d="M21.3,24.3c-1.5,0-2.8-1.3-2.8-3c0-1.5,1.3-2.8,3-2.8c1.5,0,2.8,1.3,2.8,2.8C24.3,23.1,23.1,24.3,21.3,24.3
		L21.3,24.3z M16.8,21.4c0,1.8,1.1,3.4,2.7,4.2c3.8,1.7,7.7-2.2,6-6C23.5,15.1,16.8,16.6,16.8,21.4L16.8,21.4z"/>
	<path class="st1" d="M25,16.6c0,0.4,0.1,0.6,0.3,0.8c0.8,0.8,1.9,0.2,1.9-0.7C27.2,15.2,25,15.3,25,16.6L25,16.6z"/>
	<path class="st0" d="M21.4,4.4c9.4,0,17.1,7.6,17.1,17.1c0,9.4-7.6,17.1-17.1,17.1c-9.4,0-17.1-7.6-17.1-17.1
		C4.4,12,12,4.4,21.4,4.4L21.4,4.4z"/>
</g>
</svg>
